<svg xmlns="http://www.w3.org/2000/svg" width="800" height="800" viewBox="0 0 32 32" fill="#0cedbc"><path d="m27.7 27.6-1.8-2.4-.5.4c-4.1-4.3-5.6-8.4-7.6-13l2-4.1 1 .5C24 5 25 14 23 17.8 29.6 16 35.2 5.5 28 1.3c-1.8 3.1-4.4 2.3-8.7-.2l-3 5.3.7.4-1 2-1-2 .8-.4L12.7 1c-4.3 2.5-7 3.3-8.7.2-7.3 4.2-1.6 14.8 5 16.5C7 14 8 5 11.1 9l1-.5a64 64 0 0 1 2 4.1c-2 4.6-3.5 8.7-7.6 13l-.5-.4-1.8 2.4.1.1-.4.4c.6 1.2 1.8 1.8 3.2 2.3l.4-.3.8.6 1.7-2.4-.5-.4c2.8-3.3 4.7-7.2 6.4-11.1a44 44 0 0 0 6.3 11.1l-.5.4 1.8 2.4.8-.6.4.3c1.3-.5 2.6-1.1 3.2-2.3a27 27 0 0 1-.4-.4h.1z"/></svg>
