<svg xmlns="http://www.w3.org/2000/svg" width="800" height="800" viewBox="0 0 32 32" fill="#ed0c1f"><path d="M31.2 2.6a17.4 17.4 0 0 0-11.9 10.7c3.1 2.5 2.1 6.9-1 8.4a4.2 4.2 0 0 0-4.5 0c-3-1.5-4.1-5.9-1-8.4A17.4 17.4 0 0 0 1 2.6c2.6 2.7 3.2 8 .8 11 4 .6 4.7 3.7 4 8.5 2.1-1.3 4.7-.8 6.3 2a4.2 4.2 0 1 0 8 0c1.6-2.8 4.1-3.3 6.2-2-.7-4.8 0-8 4-8.6-2.4-2.9-1.7-8.2.9-10.9zm-13.9 24a2.4 2.4 0 1 1 1-4.8l.2.2c.1 0 .2 0 .3.2h.1a2.5 2.5 0 0 1 .2.2v.1l.2.2h.1v.1a1.5 1.5 0 0 1 .1.2.8.8 0 0 1 0 .1l.1.1a1.6 1.6 0 0 1 0 .2l.1.1V24.3c0 1.3-1 2.3-2.4 2.3z"/></svg>
