<svg xmlns="http://www.w3.org/2000/svg" width="800" height="800" viewBox="0 0 32 32" fill="#42f54b"><path d="m29.1 20.8 1.4-.1c-.7-.6-1.4-1-2-2.3-.3-1.6-.9-3-3.3-3.6l.3.5c-.5-.2-1-.2-1.7 0v-.1c0-1.2-.1-2.3-.4-3.4 1 .2 1.8 0 2.5-.6l-.1.6c1.8-1.3 2-2.4 2-3.5.2-1.3.7-2 1.2-2.7l-1.5.3c0-.7.2-1.4.9-2.2-4.5.4-2.3 2.5-2.4 6.6l-2.8.7a10 10 0 0 0-4-5.6l.4-.2a2.2 2.2 0 0 0 3.8-1.5A2.2 2.2 0 0 0 19.8 2C18.9 1.2 17.5.6 16 .6s-3 .6-3.8 1.4a2.2 2.2 0 0 0-3.7 1.7 2.2 2.2 0 0 0 3.8 1.5l.3.2a10 10 0 0 0-4 5.6L6 10.3c-.2-4.1 2-6.2-2.4-6.6.6.8.8 1.5.8 2.2L3 5.6c.5.7 1 1.3 1.2 2.5-.1 1.2 0 2.4 2 3.7l-.1-.6c.6.6 1.5.8 2.5.6-.3 1-.4 2.2-.4 3.4-.6-.1-1.2-.1-1.7.1 0-.2.2-.3.3-.5-2.6.5-3 2.1-3.4 3.8-.6 1.1-1.2 1.5-1.9 2l1.3.2c-.3.7-.7 1.3-1.6 1.8 4.2 1.5 3-2.4 4.7-6.3h2.3c.1 1.5.5 3 1 4.2-1 .3-1.8.9-2.2 1.8-1.4 1.4-.8 2.4.5 3.6.4 1.1.3 1.9.2 2.7l1.2-1c.2.9.1 1.5 0 2.2l1.4-1.2 1.2 1.9c1.4-4.3-3-4.8-3.9-7.6l1.9-1.8c1.4 3 3.8 4.8 6.6 4.8 2.7 0 5-1.8 6.5-4.7l1.8 1.7c-.8 2.8-5.2 3.3-3.8 7.6.3-.7.7-1.3 1.2-1.8l1.3 1.1c-.1-.7-.2-1.3 0-2.2l1.2 1c0-.8-.2-1.5.2-2.7 1.3-1.2 2-2.1.5-3.6-.3-1-1-1.5-2.1-1.8.5-1.2.9-2.7 1-4.2H26c1.8 3.9.6 7.8 4.7 6.3-.8-.5-1.3-1.1-1.6-1.8zm-18-1.7-.7-9.4 1.4-.5-.8 10zm2.4 3.4L13 8.6l1.4-.7-.8 14.6zm5 0L17.9 8l1.4.7-.6 14zm1.8-13.3 1.4.5-.6 9.4-.8-10z"/></svg>
