<svg xmlns="http://www.w3.org/2000/svg" width="800" height="800" viewBox="0 0 32 32" fill="#e6e20e"><path d="M1.5 10.1zm0 0c1.7 3 3.7 4.8 3.7 8.3 0 1.3-1 1.8-1 2.8 0 .6.7 1.2 1.3 1.2.6 0 1.3-.6 1.3-1.2 0-1-1-1.4-1-2.7 0-4 7.1-1.5 7.5 4.2.1 2.9-1.5 3-1.5 4.4 0 1.2.8 1.6 1.5 1.6.8 0 1.4-.4 1.4-1.6 0-1-1.3-1.5-1.3-4.4.1-6 5.1-4 5.4 2.3 0 1.9-1.2 2.5-1.2 4 0 .8.6 1.3 1.3 1.3.7 0 1.4-.6 1.4-1.4 0-1.5-1.3-2-1.2-4 .1-6.9 4.3-11.7 5-4.8.2 1.6-1 2.2-1 3.7 0 .8.7 1.4 1.2 1.4.6 0 1.2-.6 1.2-1.4 0-1.4-1.2-2-1-3.8.8-6.3 4.4-7.4 6-9.9-7.5-11-23-11-29 0zm1.7 0C8.3.8 22.8.8 28.9 10.4c-9.3 6.8-17.4 6.8-25.7-.3zm17.6-.8a5 5 0 1 1-10.1 0 5 5 0 0 1 10.1 0zM17.5 9A1.8 1.8 0 1 1 14 9a1.8 1.8 0 0 1 3.6 0zm-12 11.3v-5.7zm7.8 5.3V20zm5.6 1.5v-5.7zm5.5-4.5V17z"/></svg>
